<?xml version="1.0" encoding="utf-8"?>
<!-- Generator: Adobe Illustrator 23.0.3, SVG Export Plug-In . SVG Version: 6.00 Build 0)  -->
<svg version="1.0" id="Layer_1" xmlns="http://www.w3.org/2000/svg" xmlns:xlink="http://www.w3.org/1999/xlink" x="0px" y="0px"
	 viewBox="0 0 50 19" enable-background="new 0 0 50 19" xml:space="preserve">
<path d="M25,0c0,0-3,1.6-3,5v7h-2V6h-4v0h-1c-0.6,0-1,0.4-1,1s0.4,1,1,1l-1,3l-1.4-2C12.9,8.2,13,7.3,13,7c0-0.6-0.4-1-1-1
	s-1,0.4-1,1c0,0.3,0.1,1.2,0.4,2L10,11L9,8c0.6,0,1-0.4,1-1S9.6,6,9,6H7C6.4,6,6,6.5,6,7s0.4,1,1,1l2.4,5.5c0.2,0.6,1.1,0.6,1.3,0
	L12,11l1.3,2.6c0.3,0.6,1.1,0.5,1.3,0L17,8c0,0,0,0,0.1,0H18v4c-0.6,0-1,0.4-1,1s0.4,1,1,1h10c0.6,0,1-0.4,1-1s-0.4-1-1-1V6l-2,1.3
	L25,8h1v4h-2V5C24,2.7,25,0,25,0z M37,0c0,0,1,2.7,1,5v7c-0.5,0-1,0.5-1,1c0,0.6,0.5,1,1,1h2c0.6,0,1-0.4,1-1c0-0.5-0.4-1-1-1V8.3
	C40.2,8.2,40.5,8,41,8c0.3,0,0.4,0.1,0.5,0.2c0.6,0.6,0.6,2.3,0.5,3.3l0,0.5c0,0.9,0.4,1.3,0.7,1.6c0.5,0.4,1.1,0.5,1.6,0.5
	c0.4,0,0.8-0.1,0.9-0.1c0.5-0.1,0.9-0.7,0.7-1.2c-0.1-0.5-0.7-0.9-1.2-0.7c-0.3,0.1-0.7,0.1-0.8,0c-0.7-1.3,0.9-3.6-0.5-5
	c-1.1-1-2.4-1-3.5-0.6V5C40,1.6,37,0,37,0z M18.5,2C17.7,2,17,2.7,17,3.5S17.7,5,18.5,5S20,4.3,20,3.5S19.3,2,18.5,2z M26.5,2
	C25.7,2,25,2.7,25,3.5S25.7,5,26.5,5S28,4.3,28,3.5S27.3,2,26.5,2z M3,4L0,8h1v4h0c0,1.1,1.1,2,2,2c0.6,0,1,0,1.4-0.2
	c0.5-0.2,0.7-0.8,0.5-1.3c-0.2-0.5-0.6-0.6-1.2-0.4C3.4,12.3,3,12,3,11.6V8h1.4c0.6,0,1-0.4,1-1S5,6,4.4,6H3V4z M48,4l-3,4h1v4h0
	c0,1.1,1.1,2,2,2c0.6,0,1,0,1.4-0.2c0.5-0.2,0.7-0.8,0.5-1.3c-0.2-0.5-0.6-0.6-1.2-0.4C48.4,12.3,48,12,48,11.6V8h1c0.6,0,1-0.4,1-1
	s-0.4-1-1-1h-1V4z M34.9,5c-0.4,0-0.7,0.3-0.8,0.7C34,6,34,6.6,34.1,7.3c-0.5-0.2-1-0.3-1.6-0.3C30.6,7,29,8.1,29,9.5
	c0,0.8,0.5,1.5,1.3,1.9c-0.2,0.1-0.3,0.3-0.3,0.7c0,0.5,0.3,0.8,0.8,0.9c1.2,0.2,4.2,0.8,4.2,2c0,1.5-1.3,2-2,2c-1,0-1.8-0.6-2-1
	c-0.2-0.4,0-1,0.4-1c0.2,0,0.6,0.2,0.6,0.5V16c0.4,0,0.7-0.6,0.7-1c0-0.7-0.9-1-1.7-1c-1.6,0-2,1.1-2,2c0,2.3,2.6,3,4,3
	c3.8,0,4-3.1,4-4c0-1.8-1.4-2.8-2.6-3.4c0.9-0.4,1.6-1.2,1.6-2.1c0-0.6-0.3-1.1-0.7-1.5c0.1-0.5,0.3-1.1,0.6-1.5
	c0.3-0.4,0-1.3-0.6-1.5C35.2,5,35,5,34.9,5z M32.5,8C33.3,8,34,8.7,34,9.5S33.3,11,32.5,11S31,10.3,31,9.5S31.7,8,32.5,8z"/>
</svg>
